<svg height="800" width="800" xmlns="http://www.w3.org/2000/svg" fill="#fff" viewBox="0 0 211.188 211.188" xml:space="preserve"><path d="M211.18 86.626a5 5 0 0 0-.45-2.328l-32.14-69.553c-.012-.026-.029-.048-.041-.074-.035-.073-.078-.139-.116-.21a5 5 0 0 0-.518-.778 5 5 0 0 0-.5-.529c-.033-.03-.061-.064-.094-.093a5 5 0 0 0-.688-.492c-.071-.043-.145-.079-.218-.119a5 5 0 0 0-.583-.267q-.117-.047-.236-.088a5 5 0 0 0-.833-.201c-.03-.004-.061-.003-.091-.007a5 5 0 0 0-.621-.045c-.058 0-.114.01-.172.012q-.129.006-.259.019-.369.032-.723.116c-.045.01-.089.01-.133.021l-57.176 15.228v-5.239c0-5.51-4.482-9.992-9.992-9.992s-9.992 4.482-9.992 9.992v10.562l-59.75 15.913c-.018.005-.032.014-.05.019q-.43.12-.828.312c-.073.035-.139.076-.209.114q-.288.156-.554.349-.11.078-.216.16c-.22.178-.43.37-.618.585l-.035.046a5 5 0 0 0-.469.656c-.045.075-.084.151-.126.228-.048.089-.104.173-.147.266L.461 120.762a5 5 0 0 0-.45 2.234 12 12 0 0 0-.011.473c0 19.646 16.661 35.63 37.14 35.63s37.14-15.983 37.14-35.63q-.001-.19-.008-.379a5 5 0 0 0-.45-2.329L44.175 56.607 95.604 42.91v108.106c0 16.417-13.356 29.773-29.773 29.773-7.439 0-13.492 6.052-13.492 13.558a5 5 0 0 0 5 5h96.516c2.762 0 5-2.305 5-5.066 0-7.439-6.053-13.492-13.492-13.492-16.417 0-29.773-13.356-29.773-29.773V37.587l49.455-13.171-27.675 59.881a5 5 0 0 0-.45 2.235q-.009.237-.01.473c0 19.646 16.661 35.63 37.14 35.63s37.14-15.984 37.14-35.63zM12.818 117.859 37.14 65.225l24.323 52.634zm161.233-89.098 24.322 52.634h-48.646z"/></svg>